<svg xmlns="http://www.w3.org/2000/svg" width="159.969" height="57.018" viewBox="0 0 159.969 57.018"><g transform="translate(63.9)"><path d="M1646.927,1109.441a6.5,6.5,0,0,1,5.333,2.485v-2.238h3.218v15.654c0,4.194-2.711,7.355-7.518,7.355-4.115,0-7.156-2.044-7.549-5.452h3.156c.477,1.594,2.18,2.684,4.392,2.684,2.458,0,4.3-1.51,4.3-4.587v-2.569a6.594,6.594,0,0,1-5.333,2.569c-4.057,0-7.271-3.266-7.271-8.021S1642.87,1109.441,1646.927,1109.441Zm.667,2.768c-2.374,0-4.67,1.788-4.67,5.112s2.3,5.253,4.67,5.253c2.406,0,4.667-1.872,4.667-5.2C1652.26,1114.076,1650,1112.208,1647.594,1112.208Z" transform="translate(-1639.656 -1104.408)" fill="#390049"/><path d="M1647.375,1125.095h-3.187v-15.407h3.187v2.238a5.02,5.02,0,0,1,4.613-2.485v3.3h-.812c-2.348,0-3.8.976-3.8,4.251Z" transform="translate(-1624.189 -1104.408)" fill="#390049"/><path d="M1654.1,1125.342c-4.389,0-7.717-3.13-7.717-7.964a7.856,7.856,0,1,1,15.711,0A7.712,7.712,0,0,1,1654.1,1125.342Zm0-2.768c2.375,0,4.724-1.7,4.724-5.2s-2.265-5.17-4.639-5.17c-2.407,0-4.561,1.678-4.561,5.17S1651.693,1122.574,1654.1,1122.574Z" transform="translate(-1616.69 -1104.408)" fill="#390049"/><path d="M1650.243,1109.5h3.24l3.218,12.387,3.267-12.387h3.328l3.13,12.33,3.192-12.33h3.13l-4.78,15.407h-3.355l-3.1-11.381-3.1,11.381h-3.355Z" transform="translate(-1603.511 -1104.217)" fill="#390049"/><path d="M1657.391,1115.057h-1.815v-2.6h1.815v-3.828h3.218v3.828h3.743v2.6h-3.743v8.528c0,1.148.446,1.62,1.788,1.62h1.955v2.658h-2.515c-2.737,0-4.445-1.148-4.445-4.278Z" transform="translate(-1585.297 -1107.177)" fill="#390049"/><path d="M1658.226,1108.3h3.192v7.072a6.1,6.1,0,0,1,4.776-2.039c3.439,0,6.123,2.26,6.123,6.569v9.086h-3.156v-8.613c0-2.821-1.54-4.273-3.858-4.273-2.349,0-3.885,1.452-3.885,4.273v8.613h-3.192Z" transform="translate(-1576.248 -1108.301)" fill="#390049"/><path d="M1650.84,1116c5.584,0,9.531,3.077,10.687,8.379h-7.261a3.507,3.507,0,0,0-3.545-2.552c-2.432,0-4.111,1.912-4.111,5.62s1.678,5.624,4.111,5.624a3.457,3.457,0,0,0,3.545-2.552h7.261c-1.156,5.143-5.1,8.375-10.687,8.375-6.542,0-11.164-4.388-11.164-11.447C1639.675,1120.428,1644.3,1116,1650.84,1116Z" transform="translate(-1639.591 -1082.012)" fill="#390049"/><path d="M1645.451,1114.429h6.82v29.511h-6.82Z" transform="translate(-1619.873 -1087.377)" fill="#390049"/><path d="M1670.247,1138.327h-6.816v-3.033a8.119,8.119,0,0,1-6.746,3.271c-5.143,0-8.613-3.549-8.613-9.491v-13h6.781v12.083c0,3.028,1.712,4.706,4.264,4.706,2.636,0,4.313-1.678,4.313-4.706v-12.083h6.816Z" transform="translate(-1610.924 -1081.763)" fill="#390049"/><path d="M1667.885,1121.364c5.5,0,9.813,4.388,9.813,11.407s-4.348,11.487-9.813,11.487a7.807,7.807,0,0,1-6.856-3.435v3.117h-6.82v-29.511h6.82v10.405A7.861,7.861,0,0,1,1667.885,1121.364Zm-2.031,5.947c-2.552,0-4.865,1.951-4.865,5.5s2.314,5.5,4.865,5.5c2.591,0,4.9-2,4.9-5.545S1668.445,1127.311,1665.854,1127.311Z" transform="translate(-1589.969 -1087.377)" fill="#390049"/></g><path d="M1668.056,1134.384l6.4-14.171-11.637,1.2-4.9-.693-.039,1.24-.525-.428-1.064-.869,1.628-.318.27-7.889-1.466-1.011-10.444,1.417-13.69-1.417V1109.1l-4.7-.283-2.711,4.3,1.412,50.357,2.7.092,1.064-1.757.539-20.885,1.341-2.472,13.222.8.962-2.269.609.754,1.519,1.523-1.876.039-.451,8.768,1.792.927,13.266-1.69,12.794.874.852-1.227Zm-14.458-13.769,3.946,3.774.252.177-.1,3-3.518-3.166-3.823-3.863Zm-7.231,1.814-.088-1.24,1.646-.667,6.362,6.891,3.329,3.02.3,3.6-4.9-5.306Zm5.01,16.784-4.9-5.527.066-2.963,7.638,8.41Zm6.092-.579-.538.009-4.839-4.706-5.513-5.734.027-.769-.125-2.366,6.017,6.9,5.624,4.415.067.821Z" transform="translate(-1625.182 -1106.546)" fill="#f2dc5d"/></svg>