<svg xmlns="http://www.w3.org/2000/svg" width="269.259" height="68.425" viewBox="0 0 269.259 68.425"><path d="M1612.474,1062.08l4.322.128,3.974-.189.252,7.569.988,1.961,2.817.211,1.518,1.427.4,2.348-1.029,1.648-2.948,1.146-1.556-.546-.536,2.938-.193,5.659-8.587.113-.432.925,1.594,2-2.3,3.858-4.175-.569-1.708-2.372,1.2-2.836-1.85-1.261-5.467.5-2.144-2.523.354-6.116,3.893.565,2.4-2.4.379-2.822-2.027-2.093-4.482.827.077-9.437,8.332-.051-.57,1.967,1.8,3.046,3.038.473,2.465-1.751.893-2.518Z" transform="translate(-1596.613 -1055.98)" fill="#f2dc5d"/><path d="M1607.141,1074.975l1.025-2.539,6.226.311,2.631-.838-1.13-2.533,1.781-2.159,3.092-.368,2.4,2.765-.834,2.559,7.839-.176.933,3.1-.81,5.963-3.143-.736-1.993,1.527-.948,3.464,3.48,2.083,2.621-.187.107,8.756-9.335.791,1.513-4.042-2.22-2.728-4,.736-1.467,2.371.664,3.131-8.249.188.318-9.3-3.361.761-2.941-2.182v-3.131l2.941-1.8,3.256.472Z" transform="translate(-1580.083 -1039.104)" fill="#f2dc5d"/><path d="M1606.785,1060.674l2.143,1.339,1.292,2.553-.667,1.947-4.5-5.143Z" transform="translate(-1567.134 -1060.674)" fill="#f2dc5d"/><g transform="translate(27.119 1.232)"><path d="M1606.085,1060.949l-1.835,1.233,1.835,3.539,1.095.9,2.727,3.689,12,12.1.691-1.491,2.659.466-10.287-10.112Z" transform="translate(-1597.06 -1060.949)" fill="#f2dc5d"/><path d="M1608.283,1064.315l4.465,4.866.915-1.354-.465-2.25-1.535-1.464Z" transform="translate(-1582.969 -1049.896)" fill="#f2dc5d"/><path d="M1606.356,1062.169l.993,1.612,6.679,6.4-.266-1.97-.067-1.955-4.056-3.915Z" transform="translate(-1589.701 -1056.685)" fill="#f2dc5d"/><path d="M1605.387,1065.039l-.187,2.107-1.992.978,2.888,2.539,2.69,2.424,2.285-1.9Z" transform="translate(-1600.697 -1046.664)" fill="#f2dc5d"/><path d="M1618.126,1076.932l7.209,7.816.145-4.336-12.526-12.4-5.963-5.491-3.74-.345-.161.19Z" transform="translate(-1601.108 -1056.667)" fill="#f2dc5d"/><path d="M1618.369,1076.838l-15.615-14.129-.1.123.217,3.746.33.976,3,.822.929,2.143,5.67,4.589,4.52,4.672.945.177.461,1.276,2.568,2.654-.224,1.12,2.076-.36,3.113.36Z" transform="translate(-1602.649 -1054.803)" fill="#f2dc5d"/><path d="M1606.807,1069.872l-3.329-3.977-.708.348.019,2.867.987,1.441,2.482,2.8,2.958.6.2-2.143Z" transform="translate(-1602.224 -1043.67)" fill="#f2dc5d"/></g><path d="M1602.707,1067.043l.107,2.3h1.614Z" transform="translate(-1575.325 -1038.431)" fill="#f2dc5d"/><path d="M1609.618,1063.769v-1.6l-2,.022.81.895Z" transform="translate(-1558.172 -1055.453)" fill="#f2dc5d"/><g transform="translate(69.346 0.103)"><path d="M1619.444,1061.837a6.628,6.628,0,0,1,5.432,2.534v-2.278h3.276v15.932c0,4.268-2.763,7.484-7.651,7.484-4.187,0-7.287-2.08-7.683-5.553h3.212c.485,1.626,2.224,2.736,4.471,2.736,2.5,0,4.376-1.537,4.376-4.668v-2.615a6.712,6.712,0,0,1-5.432,2.615c-4.124,0-7.4-3.33-7.4-8.169S1615.32,1061.837,1619.444,1061.837Zm.683,2.812c-2.421,0-4.753,1.819-4.753,5.207s2.332,5.352,4.753,5.352c2.444,0,4.749-1.9,4.749-5.292C1624.875,1066.558,1622.571,1064.649,1620.127,1064.649Z" transform="translate(-1612.049 -1056.715)" fill="#390049"/><path d="M1619.819,1077.769h-3.24v-15.676h3.24v2.278a5.1,5.1,0,0,1,4.695-2.534v3.355h-.827c-2.385,0-3.868,1-3.868,4.327Z" transform="translate(-1596.222 -1056.715)" fill="#390049"/><path d="M1626.627,1078.025c-4.47,0-7.853-3.186-7.853-8.11a8,8,0,1,1,15.99,0A7.853,7.853,0,0,1,1626.627,1078.025Zm0-2.817c2.413,0,4.8-1.734,4.8-5.292s-2.3-5.266-4.722-5.266c-2.449,0-4.632,1.712-4.632,5.266S1624.179,1075.208,1626.627,1075.208Z" transform="translate(-1588.556 -1056.715)" fill="#390049"/><path d="M1622.635,1061.894h3.3l3.27,12.6,3.329-12.6h3.387l3.187,12.548,3.243-12.548h3.186l-4.87,15.675h-3.415l-3.158-11.578-3.159,11.578h-3.414Z" transform="translate(-1575.073 -1056.516)" fill="#390049"/><path d="M1629.81,1067.569h-1.843v-2.646h1.843v-3.9h3.271v3.9h3.819v2.646h-3.819v8.675c0,1.168.458,1.654,1.824,1.654h2v2.7h-2.562c-2.794,0-4.528-1.168-4.528-4.354Z" transform="translate(-1556.442 -1059.544)" fill="#390049"/><path d="M1630.618,1060.7h3.248v7.2a6.206,6.206,0,0,1,4.861-2.075c3.5,0,6.227,2.3,6.227,6.684v9.247h-3.208v-8.761c0-2.875-1.573-4.358-3.931-4.358-2.391,0-3.95,1.482-3.95,4.358v8.761h-3.248Z" transform="translate(-1547.186 -1060.697)" fill="#390049"/><path d="M1622.048,1068.4a7.9,7.9,0,0,1,6.987,3.531v-3.208h6.936v22.649h-6.936v-3.208a8.021,8.021,0,0,1-7.022,3.531c-5.517,0-9.947-4.542-9.947-11.686S1616.5,1068.4,1622.048,1068.4Zm2.031,6.048c-2.6,0-4.956,1.95-4.956,5.562s2.359,5.643,4.956,5.643c2.637,0,4.956-1.995,4.956-5.6S1626.717,1074.444,1624.079,1074.444Z" transform="translate(-1611.984 -1033.802)" fill="#390049"/><path d="M1629.566,1068.4c5.679,0,9.7,3.127,10.873,8.523h-7.377a3.588,3.588,0,0,0-3.616-2.6c-2.475,0-4.178,1.95-4.178,5.724s1.7,5.724,4.178,5.724a3.537,3.537,0,0,0,3.616-2.6h7.377c-1.177,5.233-5.194,8.518-10.873,8.518-6.658,0-11.362-4.466-11.362-11.646C1618.2,1072.9,1622.908,1068.4,1629.566,1068.4Z" transform="translate(-1590.546 -1033.802)" fill="#390049"/><path d="M1633.656,1068.4a7.884,7.884,0,0,1,6.977,3.531v-3.208h6.942v22.649h-6.942v-3.208a7.991,7.991,0,0,1-7.018,3.531c-5.522,0-9.943-4.542-9.943-11.686S1628.094,1068.4,1633.656,1068.4Zm2.026,6.048c-2.6,0-4.946,1.95-4.946,5.562s2.35,5.643,4.946,5.643c2.633,0,4.951-1.995,4.951-5.6S1638.315,1074.444,1635.682,1074.444Z" transform="translate(-1571.443 -1033.802)" fill="#390049"/><path d="M1639.8,1073.887a8.337,8.337,0,0,1,6.987,3.451v-10.514h6.932v30.035h-6.932v-3.249a7.855,7.855,0,0,1-6.987,3.572c-5.562,0-9.988-4.542-9.988-11.686S1634.234,1073.887,1639.8,1073.887Zm2.027,6.048c-2.6,0-4.947,1.95-4.947,5.562s2.35,5.643,4.947,5.643c2.642,0,4.96-2,4.96-5.6S1644.465,1079.935,1641.823,1079.935Z" transform="translate(-1550.011 -1039.293)" fill="#390049"/><path d="M1647.391,1091.692c-6.654,0-11.443-4.466-11.443-11.646s4.7-11.65,11.443-11.65c6.619,0,11.286,4.385,11.286,11.282a17.719,17.719,0,0,1-.126,2.031h-15.707c.246,2.965,2.071,4.34,4.3,4.34a3.7,3.7,0,0,0,3.616-2.188h7.387C1657.051,1088.282,1653.034,1091.692,1647.391,1091.692Zm-4.5-13.838h8.68c0-2.475-1.95-3.895-4.259-3.895A4.287,4.287,0,0,0,1642.89,1077.854Z" transform="translate(-1528.57 -1033.802)" fill="#390049"/><path d="M1673.035,1079.009c0-2.961-1.712-4.587-4.34-4.587s-4.344,1.626-4.344,4.587v12.3h-6.9v-12.3c0-2.961-1.712-4.587-4.345-4.587s-4.344,1.626-4.344,4.587v12.3h-6.942v-22.648h6.942v2.844a8,8,0,0,1,6.617-3.087,8.46,8.46,0,0,1,7.71,4.223,9.1,9.1,0,0,1,7.629-4.223c5.6,0,9.21,3.571,9.21,9.659v13.232h-6.9Z" transform="translate(-1508.049 -1033.74)" fill="#390049"/><path d="M1669.009,1068.469h7.5l-14.2,33.4h-7.472l5.2-11.529-9.215-21.876h7.751l5.238,14.166Z" transform="translate(-1476.599 -1033.551)" fill="#390049"/></g></svg>