<svg xmlns="http://www.w3.org/2000/svg" width="292.227" height="62.636" viewBox="0 0 292.227 62.636"><g transform="translate(66.758)"><path d="M1558.415,1083.732a6.5,6.5,0,0,1,5.323,2.476v-2.23h3.2v15.6c0,4.179-2.705,7.329-7.5,7.329-4.092,0-7.131-2.037-7.522-5.433h3.15c.476,1.588,2.174,2.675,4.373,2.675,2.454,0,4.293-1.5,4.293-4.571v-2.56a6.586,6.586,0,0,1-5.323,2.56c-4.038,0-7.24-3.255-7.24-7.993S1554.378,1083.732,1558.415,1083.732Zm.669,2.758c-2.366,0-4.65,1.782-4.65,5.094s2.283,5.235,4.65,5.235c2.392,0,4.654-1.865,4.654-5.177C1563.738,1088.351,1561.477,1086.49,1559.084,1086.49Z" transform="translate(-1550.818 -1078.717)" fill="#390049"/><path d="M1558.883,1099.33h-3.176v-15.352h3.176v2.23a4.99,4.99,0,0,1,4.592-2.476v3.286h-.8c-2.34,0-3.788.972-3.788,4.236Z" transform="translate(-1535.419 -1078.717)" fill="#390049"/><path d="M1565.587,1099.576c-4.373,0-7.686-3.119-7.686-7.935a7.828,7.828,0,1,1,15.656,0A7.688,7.688,0,0,1,1565.587,1099.576Zm0-2.758c2.366,0,4.711-1.694,4.711-5.177s-2.256-5.151-4.624-5.151c-2.4,0-4.539,1.672-4.539,5.151S1563.189,1096.818,1565.587,1096.818Z" transform="translate(-1527.958 -1078.717)" fill="#390049"/><path d="M1561.762,1083.788h3.229l3.2,12.344,3.26-12.344h3.317l3.118,12.286,3.176-12.286h3.119l-4.764,15.352h-3.343l-3.093-11.34-3.092,11.34h-3.343Z" transform="translate(-1514.839 -1078.527)" fill="#390049"/><path d="M1568.907,1089.325h-1.812v-2.591h1.813v-3.813h3.2v3.813h3.735v2.591h-3.735v8.5c0,1.144.449,1.615,1.782,1.615h1.953v2.648h-2.512c-2.727,0-4.425-1.144-4.425-4.263Z" transform="translate(-1496.713 -1081.474)" fill="#390049"/><path d="M1569.745,1082.592h3.181v7.047a6.071,6.071,0,0,1,4.76-2.032c3.427,0,6.1,2.252,6.1,6.545v9.052h-3.145v-8.582c0-2.811-1.531-4.258-3.845-4.258-2.34,0-3.867,1.447-3.867,4.258v8.582h-3.181Z" transform="translate(-1487.702 -1082.592)" fill="#390049"/><path d="M1553.558,1104.29h-2.464v-5.639h2.464v-.638c0-5.8,3.576-8.661,10.333-8.3v5.762c-2.626-.162-3.537.638-3.537,2.979v.2h3.656v5.639h-3.656v16.531h-6.8Z" transform="translate(-1551.095 -1058.502)" fill="#390049"/><path d="M1561.548,1114.076h-6.792v-22.17h6.792v3.7a8.263,8.263,0,0,1,6.954-3.937v7.192h-1.87c-3.22,0-5.085,1.113-5.085,4.927Z" transform="translate(-1538.651 -1051.757)" fill="#390049"/><path d="M1568.092,1091.646a7.728,7.728,0,0,1,6.836,3.453v-3.137h6.792v22.17h-6.792v-3.14a7.833,7.833,0,0,1-6.875,3.457c-5.4,0-9.735-4.448-9.735-11.442S1562.65,1091.646,1568.092,1091.646Zm1.988,5.917c-2.542,0-4.852,1.909-4.852,5.446s2.31,5.525,4.852,5.525c2.582,0,4.848-1.949,4.848-5.485S1572.662,1097.563,1570.08,1097.563Z" transform="translate(-1526.548 -1051.815)" fill="#390049"/><path d="M1595.32,1102.036c0-2.9-1.671-4.491-4.253-4.491s-4.253,1.593-4.253,4.491v12.04h-6.753v-12.04c0-2.9-1.672-4.491-4.254-4.491s-4.253,1.593-4.253,4.491v12.04h-6.792v-22.17h6.792v2.78a7.84,7.84,0,0,1,6.479-3.022,8.286,8.286,0,0,1,7.553,4.135,8.914,8.914,0,0,1,7.465-4.135c5.486,0,9.022,3.5,9.022,9.462v12.95h-6.753Z" transform="translate(-1504.646 -1051.757)" fill="#390049"/><path d="M1585.23,1114.451c-6.51,0-11.2-4.368-11.2-11.4s4.61-11.4,11.2-11.4c6.479,0,11.05,4.285,11.05,11.042a16.384,16.384,0,0,1-.123,1.992h-15.378c.242,2.9,2.027,4.245,4.214,4.245a3.606,3.606,0,0,0,3.537-2.142h7.236C1594.688,1111.116,1590.755,1114.451,1585.23,1114.451Zm-4.408-13.549h8.5c0-2.428-1.909-3.813-4.174-3.813A4.2,4.2,0,0,0,1580.823,1100.9Z" transform="translate(-1473.156 -1051.815)" fill="#390049"/><path d="M1579.378,1091.719h6.8l3.136,15.854,3.734-15.854h7.192l3.775,15.774,3.1-15.774h6.4l-6,22.17H1600l-3.5-14.384-3.616,14.384h-7.469Z" transform="translate(-1454.964 -1051.57)" fill="#390049"/><path d="M1598.864,1114.451c-6.515,0-11.442-4.368-11.442-11.4s5.046-11.4,11.521-11.4c6.52,0,11.525,4.369,11.525,11.4S1605.383,1114.451,1598.864,1114.451Zm0-5.881c2.424,0,4.693-1.786,4.693-5.521,0-3.774-2.226-5.525-4.614-5.525-2.463,0-4.606,1.751-4.606,5.525C1594.337,1106.783,1596.4,1108.569,1598.864,1108.569Z" transform="translate(-1427.619 -1051.815)" fill="#390049"/><path d="M1600.283,1114.076h-6.8v-22.17h6.8v3.7a8.272,8.272,0,0,1,6.955-3.937v7.192h-1.87c-3.216,0-5.085,1.113-5.085,4.927Z" transform="translate(-1407.01 -1051.757)" fill="#390049"/><path d="M1597.355,1090.074h6.792v16.254l6.717-9.018h8.384l-9.22,11.125,9.3,11.045H1610.9l-6.757-9.3v9.3h-6.792Z" transform="translate(-1393.859 -1057.162)" fill="#390049"/></g><path d="M1587.922,1104.488l-5.763-2.754-1.6-.273.035.15-.488,1.913-2.644-2.6,3.1.536-3.233-13.535-7.993-3.374-12.854-1.03-10.993,1.228-6.792,3.519-2.776,8.182.722,13.54,2.965,4.645,3.277.3-1.258,5.454,7.426-5.371.682.018.326-1.882,2.168,1.957-2.494-.075-.633,3.656,1.724,10.113,6.339,3.431,18.95.5,5.076,5.292-.251-5.675,4.461-.907,4.016-4.724,1.461-13.535Zm-31.812,10.747-1.623-1.316-3.867-4,.373-2.161,8.028,7.479.075.083Zm7.056.211-1.175-.871-9.924-9.555,1.861-1.32,8.824,8.2,3.15,3.633Zm7.257-.128-8.59-7.939-5.055-5.7,1.276-.9,3.791,3.009,5.551,4.491,4.426,4.575.757,1.161Zm4.8-2.894-2.366-2.45-10.676-9.665,3.567-.189,8.38,8.12,2.873,3.11Zm3.444-3.286-9.572-9.022-.158-.163,2.208-.114,1.39.237,6.717,6.775Z" transform="translate(-1535.918 -1079.427)" fill="#f2dc5d"/></svg>