<svg xmlns="http://www.w3.org/2000/svg" viewBox="-3.93 -3.02 51.05 49.28"><g transform="translate(-1201.909 -7123)"><g transform="translate(0 -0.213)"><path d="M1094.017,1221.394c-10.274,2.561-17.417,4.342-24.362-11.736-4.2-9.721,4.811-22.909,15.086-25.47s21.785,8.127,24.347,18.4S1104.29,1218.831,1094.017,1221.394Z" transform="translate(135.4 5939.41)" fill="#0cce6b"/><path d="M1094.017,1221.394c-10.274,2.561-17.417,4.342-24.362-11.736-4.2-9.721,4.811-22.909,15.086-25.47s21.785,8.127,24.347,18.4S1104.29,1218.831,1094.017,1221.394Z" transform="translate(134.4 5941.41)" fill="none" stroke="#0cce6b" stroke-width="2"/></g><path d="M4.654-6.25l.555-3.62H1.736v-2.349a1.81,1.81,0,0,1,2.041-1.955H5.356v-3.082a19.256,19.256,0,0,0-2.8-.245c-2.86,0-4.73,1.734-4.73,4.872V-9.87H-5.356v3.62h3.179V2.5H1.736V-6.25Z" transform="translate(1224 7151)" fill="#fff"/></g></svg>