<svg xmlns="http://www.w3.org/2000/svg" viewBox="2.7 4.37 51.8 51.83"><g transform="translate(-1364.787 -7115)"><g transform="translate(-0.134 -0.342)"><path d="M1094.017,1221.394c-10.274,2.561-17.417,4.342-24.362-11.736-4.2-9.721,4.811-22.909,15.086-25.47s21.785,8.127,24.347,18.4S1104.29,1218.831,1094.017,1221.394Z" transform="translate(-194.37 7484.382) rotate(-60)" fill="#0cce6b"/><path d="M1094.017,1221.394c-10.274,2.561-17.417,4.342-24.362-11.736-4.2-9.721,4.811-22.909,15.086-25.47s21.785,8.127,24.347,18.4S1104.29,1218.831,1094.017,1221.394Z" transform="translate(-193.138 7486.249) rotate(-60)" fill="none" stroke="#0cce6b" stroke-width="2"/></g><path d="M0-11.992A4.481,4.481,0,0,0-4.484-7.5,4.481,4.481,0,0,0,0-3.016,4.481,4.481,0,0,0,4.492-7.5,4.481,4.481,0,0,0,0-11.992ZM0-4.586A2.923,2.923,0,0,1-2.914-7.5,2.921,2.921,0,0,1,0-10.422,2.921,2.921,0,0,1,2.922-7.5,2.923,2.923,0,0,1,0-4.586Zm5.719-7.59a1.047,1.047,0,0,0-1.047-1.047,1.047,1.047,0,0,0-1.047,1.047,1.044,1.044,0,0,0,1.047,1.047A1.044,1.044,0,0,0,5.723-12.176ZM8.7-11.113a5.181,5.181,0,0,0-1.414-3.668A5.215,5.215,0,0,0,3.613-16.2c-1.445-.082-5.777-.082-7.223,0a5.207,5.207,0,0,0-3.668,1.41,5.2,5.2,0,0,0-1.414,3.668c-.082,1.445-.082,5.777,0,7.223A5.181,5.181,0,0,0-7.277-.227,5.221,5.221,0,0,0-3.609,1.188c1.445.082,5.777.082,7.223,0A5.181,5.181,0,0,0,7.281-.227,5.215,5.215,0,0,0,8.7-3.895C8.777-5.34,8.777-9.668,8.7-11.113ZM6.828-2.344A2.954,2.954,0,0,1,5.164-.68C4.012-.223,1.277-.328,0-.328s-4.012.1-5.16-.352A2.954,2.954,0,0,1-6.82-2.344C-7.277-3.5-7.172-6.23-7.172-7.5s-.1-4.012.352-5.16a2.954,2.954,0,0,1,1.664-1.664C-4-14.785-1.27-14.68,0-14.68s4.012-.1,5.16.352a2.954,2.954,0,0,1,1.664,1.664c.457,1.152.352,3.887.352,5.16S7.285-3.492,6.828-2.344Z" transform="translate(1393 7151)" fill="#fff"/></g></svg>