<svg xmlns="http://www.w3.org/2000/svg" viewBox="4.37 2.7 51.83 51.8"><g transform="translate(-1311 -7114.737)"><g transform="translate(-0.498 0.022)"><path d="M1094.017,1221.394c-10.274,2.561-17.417,4.342-24.362-11.736-4.2-9.721,4.811-22.909,15.086-25.47s21.785,8.127,24.347,18.4S1104.29,1218.831,1094.017,1221.394Z" transform="translate(1680.538 8731.214) rotate(-150)" fill="#0cce6b"/><path d="M1094.017,1221.394c-10.274,2.561-17.417,4.342-24.362-11.736-4.2-9.721,4.811-22.909,15.086-25.47s21.785,8.127,24.347,18.4S1104.29,1218.831,1094.017,1221.394Z" transform="translate(1682.405 8729.982) rotate(-150)" fill="none" stroke="#0cce6b" stroke-width="2"/></g><path d="M-4.833,0V-11.684H-8.461V0ZM-6.649-13.277a2.119,2.119,0,0,0,2.1-2.121,2.1,2.1,0,0,0-2.1-2.1,2.1,2.1,0,0,0-2.1,2.1A2.119,2.119,0,0,0-6.649-13.277ZM8.746,0h0V-6.418c0-3.141-.675-5.559-4.347-5.559A3.812,3.812,0,0,0,.97-10.09H.92v-1.594H-2.56V0H1.064V-5.785c0-1.523.289-3,2.175-3,1.859,0,1.886,1.738,1.886,3.094V0Z" transform="translate(1340 7151)" fill="#fff"/></g></svg>