<svg xmlns="http://www.w3.org/2000/svg" viewBox="0.55 -0.42 50.17 51.88"><g transform="translate(-1255.894 -7116.72)"><g transform="translate(0.104 -0.22)"><path d="M1094.017,1221.394c-10.274,2.561-17.417,4.342-24.362-11.736-4.2-9.721,4.811-22.909,15.086-25.47s21.785,8.127,24.347,18.4S1104.29,1218.831,1094.017,1221.394Z" transform="matrix(-0.259, 0.966, -0.966, -0.259, 2727.144, 6404.068)" fill="#0cce6b"/><path d="M1094.017,1221.394c-10.274,2.561-17.417,4.342-24.362-11.736-4.2-9.721,4.811-22.909,15.086-25.47s21.785,8.127,24.347,18.4S1104.29,1218.831,1094.017,1221.394Z" transform="matrix(-0.259, 0.966, -0.966, -0.259, 2725.471, 6402.584)" fill="none" stroke="#0cce6b" stroke-width="2"/></g><path d="M7.944-11.574A8.811,8.811,0,0,0,10-13.693a8.218,8.218,0,0,1-2.36.634,4.088,4.088,0,0,0,1.8-2.259,8.07,8.07,0,0,1-2.6.99,4.089,4.089,0,0,0-2.995-1.294,4.1,4.1,0,0,0-4.1,4.1,4.627,4.627,0,0,0,.1.939A11.651,11.651,0,0,1-8.6-14.873,4.068,4.068,0,0,0-9.162-12.8,4.1,4.1,0,0,0-7.335-9.391a4.128,4.128,0,0,1-1.853-.52v.051A4.1,4.1,0,0,0-5.9-5.838,4.334,4.334,0,0,1-6.98-5.7a5.166,5.166,0,0,1-.774-.063A4.106,4.106,0,0,0-3.921-2.919,8.209,8.209,0,0,1-9.01-1.167,8.483,8.483,0,0,1-10-1.218,11.583,11.583,0,0,0-3.706.622,11.583,11.583,0,0,0,7.957-11.041C7.957-11.218,7.957-11.4,7.944-11.574Z" transform="translate(1282 7151)" fill="#fff"/></g></svg>